<?xml version="1.0" encoding="UTF-8" standalone="no"?>
<svg
   height="128"
   viewBox="0 0 128 128"
   width="128"
   version="1.1"
   id="svg1097"
   xmlns="http://www.w3.org/2000/svg"
   xmlns:svg="http://www.w3.org/2000/svg">
  <defs
     id="defs1101" />
  <path
     d="M 107.1875,0 79.437504,27.656248 C 84.906248,30.5 89.312496,34.937504 92.156248,40.375 l 1.375,-1.375 0.0625,0.0625 L 128,4.656248 V 0 Z M 24,8 C 10.843752,8 0,18.843752 0,32 v 48 c 0,13.156248 10.843752,24 24,24 h 80 c 13.15625,0 24,-10.843752 24,-24 V 32 c 0,-4.562496 -1.34375,-8.812496 -3.59375,-12.468752 L 112,31.968752 V 80 c 0,4.562496 -3.4375,8 -8,8 H 24 c -4.562496,0 -8,-3.437504 -8,-8 V 32 c 0,-4.562496 3.437504,-8 8,-8 H 71.75 L 87.812496,8 Z M 64,32 C 50.75,32 40,42.718752 40,56 V 80 H 64 C 77.281248,80.0624 88,69.25 88,56 88,42.718752 77.281248,32 64,32 Z m -24,80 c -8.843752,0 -16,7.15625 -16,16 h 80 c 0,-8.84375 -7.156248,-16 -16,-16 z m 0,0"
     fill="#222222"
     id="path1095"
     style="fill:#ffffff;stroke-width:8" />
</svg>
