<?xml version="1.0" encoding="UTF-8" standalone="no"?>
<svg
   height="128"
   viewBox="0 0 128 128"
   width="128"
   version="1.1"
   id="svg1582"
   xmlns="http://www.w3.org/2000/svg"
   xmlns:svg="http://www.w3.org/2000/svg">
  <defs
     id="defs1586" />
  <path
     d="m 86.544166,11.207974 c 4.492342,4.115363 9.832884,9.707223 17.529564,17.43531 2.26187,2.261877 3.14149,6.000261 1.41367,10.021377 -0.78541,2.010557 -0.31414,4.272435 1.22518,5.780354 2.1048,2.041972 5.4662,2.041972 7.60242,0 2.1048,-2.104805 6.37724,-0.691133 7.41393,0.34556 l 3.86405,3.864042 v -0.03145 c 3.1729,3.141496 3.1729,8.262139 0,11.403635 l -19.00606,19.037467 c -3.1415,3.141497 -8.262138,3.141497 -11.403634,0 l -3.706963,-4.209567 c -2.104805,-2.104805 -2.104805,-5.497621 0,-7.602425 2.104798,-2.104805 2.104798,-5.497614 0,-7.602419 -2.104805,-2.041979 -6.000262,-2.387537 -8.13648,-0.345568 L 73.915353,68.194731 54.281,48.528958 c 0,0 6.754211,-6.659974 8.733357,-8.576286 4.963561,-5.026394 0.502638,-9.267417 -1.696405,-11.403634 -5.340548,-5.309128 -16.398617,-7.413933 -23.938211,-7.09978 -2.356123,0.09424 -4.492342,-1.350846 -5.309127,-3.549898 -0.785381,-2.230456 -0.03142,-4.712241 1.884899,-6.125912 C 56.103063,2.4431999 77.81081,2.4431999 86.544166,11.207974 Z M 66.846987,75.828572 24.311114,118.27019 c -2.984424,3.01584 -5.403374,5.02639 -8.199304,5.02639 -8.7647788,-0.21987 -15.86456182,-7.31968 -16.0844662,-16.08446 0,-4.27244 1.0366936,-5.84318 4.0525305,-8.827605 L 46.678572,55.974311 Z m 0,0"
     fill="#222222"
     id="path1580"
     style="fill:#999999;fill-opacity:0.797719;stroke-width:8.04222" />
</svg>
