<?xml version="1.0" encoding="UTF-8" standalone="no"?>
<!-- Created with Inkscape (http://www.inkscape.org/) -->

<svg
   width="128"
   height="128"
   viewBox="0 0 33.866667 33.866667"
   version="1.1"
   id="svg5"
   xmlns="http://www.w3.org/2000/svg"
   xmlns:svg="http://www.w3.org/2000/svg">
  <defs
     id="defs2" />
  <g
     id="layer1"
     style="fill:#ffffff">
    <path
       fill-rule="evenodd"
       clip-rule="evenodd"
       d="M 16.944959,0.28455958 C 7.574822,0.28455958 0,7.9151857 0,17.355347 c 0,7.546067 4.8534682,13.933588 11.586453,16.194358 0.841795,0.170062 1.15016,-0.367324 1.15016,-0.819249 0,-0.395753 -0.02538,-1.752314 -0.02538,-3.165696 C 7.9975499,30.58239 7.016002,27.529792 7.016002,27.529792 6.2584339,25.551355 5.1360487,25.042904 5.1360487,25.042904 c -1.5427643,-1.045736 0.112772,-1.045736 0.112772,-1.045736 1.7113403,0.113135 2.6093086,1.752282 2.6093086,1.752282 1.5147305,2.59995 3.9554577,1.865339 4.9373747,1.413055 0.139968,-1.102299 0.589276,-1.865339 1.066217,-2.28923 -3.759432,-0.395753 -7.7148952,-1.865344 -7.7148952,-8.422495 0,-1.865339 0.672856,-3.391461 1.7390791,-4.578393 -0.1682548,-0.423855 -0.7575312,-2.1764591 0.1682496,-4.5222201 0,0 1.4307875,-0.4522836 4.6567845,1.752277 a 16.291452,16.291452 0 0 1 4.236416,-0.5653452 c 1.430751,0 2.88924,0.1979843 4.236048,0.5653452 3.22636,-2.2045606 4.657111,-1.752277 4.657111,-1.752277 0.926107,2.345761 0.336504,4.0983651 0.168255,4.5222201 1.094283,1.186932 1.739437,2.713054 1.739437,4.578393 0,6.557151 -3.955421,7.998313 -7.743035,8.422495 0.617421,0.536916 1.150203,1.554255 1.150203,3.165332 0,2.289193 -0.02538,4.126467 -0.02538,4.691454 0,0.45232 0.308582,0.989595 1.150167,0.820003 C 29.01314,31.288609 33.866603,24.901414 33.866603,17.355347 33.891988,7.9151857 26.291823,0.28455958 16.94982,0.28455958 Z"
       fill="#ffffff"
       id="path3424"
       style="fill:#ffffff;fill-opacity:1;stroke-width:0.346847" />
  </g>
</svg>
