<?xml version="1.0" encoding="UTF-8" standalone="no"?>
<!-- Created with Inkscape (http://www.inkscape.org/) -->

<svg
   width="128"
   height="128"
   viewBox="0 0 33.866667 33.866667"
   version="1.1"
   id="svg5"
   xmlns="http://www.w3.org/2000/svg"
   xmlns:svg="http://www.w3.org/2000/svg">
  <defs
     id="defs2" />
  <g
     id="layer1"
     style="fill:#ffffff">
    <g
       id="g3652"
       transform="matrix(0.6974156,0,0,0.6974156,-26.627421,-118.21144)"
       style="fill:#ffffff;fill-opacity:1">
      <g
         id="Artwork"
         style="fill:#ffffff;fill-opacity:1">
        <path
           id="circle3617"
           class="st0"
           d="m 62.460251,169.49928 a 24.280119,24.280119 0 0 0 -24.280118,24.28013 24.280119,24.280119 0 0 0 24.280118,24.28012 24.280119,24.280119 0 0 0 24.28012,-24.28012 24.280119,24.280119 0 0 0 -24.28012,-24.28013 z m 10.138344,9.59813 c 1.391493,0 2.526962,1.13602 2.526962,2.52752 0,1.39149 -1.135469,2.52751 -2.526962,2.52751 -1.363088,0 -2.470714,-1.07911 -2.527508,-2.41381 l -5.253598,-1.10763 -1.619002,7.58199 c 3.691706,0.14199 7.042871,1.27835 9.456688,3.01062 0.62475,-0.62476 1.476574,-0.99393 2.442096,-0.99393 1.95945,0 3.54973,1.59029 3.54973,3.54973 0,1.44829 -0.880118,2.69779 -2.044427,3.26575 0.05678,0.34077 0.08482,0.68133 0.08482,1.05048 0,5.45239 -6.332274,9.85382 -14.170062,9.85382 -7.83778,0 -14.170611,-4.40143 -14.170611,-9.85382 0,-0.36915 0.02806,-0.73855 0.08486,-1.07933 -1.249502,-0.56795 -2.100994,-1.78861 -2.100994,-3.2369 0,-1.95944 1.590279,-3.54973 3.549725,-3.54973 0.937127,0 1.817348,0.39757 2.442098,0.99393 2.442214,-1.78907 5.821221,-2.89703 9.598127,-3.01062 l 1.78928,-8.46221 c 0.05677,-0.17038 0.141994,-0.31248 0.283978,-0.39768 0.141993,-0.0852 0.312153,-0.11381 0.482543,-0.0854 l 5.878681,1.24962 c 0.397566,-0.85194 1.249611,-1.4199 2.24353,-1.4199 z m -15.704205,14.682 c -1.391484,0 -2.527508,1.13546 -2.527508,2.52696 0,1.39149 1.136024,2.52751 2.527508,2.52751 1.391493,0 2.527515,-1.13602 2.527515,-2.52751 0,-1.3915 -1.136022,-2.52696 -2.527515,-2.52696 z m 11.131715,0 c -1.391485,0 -2.526954,1.13546 -2.526954,2.52696 0,1.39149 1.135469,2.52751 2.526954,2.52751 1.391494,0 2.527517,-1.13602 2.527517,-2.52751 0,-1.3915 -1.136023,-2.52696 -2.527517,-2.52696 z m -11.060718,8.07174 c -0.170382,0 -0.340884,0.0642 -0.468674,0.1919 -0.255581,0.25559 -0.255581,0.68122 0,0.9368 1.703868,1.70387 5.026303,1.84585 5.991825,1.84585 0.965521,0 4.260114,-0.11354 5.992379,-1.84585 0.255581,-0.25558 0.255359,-0.65281 0.05661,-0.9368 -0.255581,-0.25557 -0.681766,-0.25557 -0.937347,0 -1.107515,1.07913 -3.407293,1.47647 -5.082764,1.47647 -1.675463,0 -4.0042,-0.39734 -5.083318,-1.47647 -0.127786,-0.12777 -0.298283,-0.1919 -0.468674,-0.1919 z"
           style="fill:#ffffff;fill-opacity:1;stroke-width:0.283979" />
      </g>
      <g
         id="Spacing_Guide"
         class="st2"
         style="display:none;fill:#ffffff;fill-opacity:1">
        <rect
           class="st3"
           width="85.400002"
           height="85.400002"
           id="rect3624"
           x="0"
           y="0"
           style="display:inline;fill:#ffffff;fill-opacity:1;stroke:#d8d8d8;stroke-width:0.5;stroke-miterlimit:10" />
        <rect
           class="st3"
           width="341.79999"
           height="85.400002"
           id="rect3626"
           x="0"
           y="0"
           style="display:inline;fill:#ffffff;fill-opacity:1;stroke:#d8d8d8;stroke-width:0.5;stroke-miterlimit:10" />
        <rect
           y="256.29999"
           class="st3"
           width="341.79999"
           height="85.400002"
           id="rect3628"
           x="0"
           style="display:inline;fill:#ffffff;fill-opacity:1;stroke:#d8d8d8;stroke-width:0.5;stroke-miterlimit:10" />
        <rect
           class="st3"
           width="85.400002"
           height="341.79999"
           id="rect3630"
           x="0"
           y="0"
           style="display:inline;fill:#ffffff;fill-opacity:1;stroke:#d8d8d8;stroke-width:0.5;stroke-miterlimit:10" />
        <rect
           x="256.39999"
           class="st3"
           width="85.400002"
           height="341.79999"
           id="rect3632"
           y="0"
           style="display:inline;fill:#ffffff;fill-opacity:1;stroke:#d8d8d8;stroke-width:0.5;stroke-miterlimit:10" />
      </g>
    </g>
  </g>
</svg>
