<?xml version="1.0" encoding="UTF-8"?>
<svg width="128" height="128" fill="#ffffff" version="1.1" viewBox="0 0 128 128" xmlns="http://www.w3.org/2000/svg">
 <path d="m124.53 28.338c-1.8798-13.753-14.058-24.591-28.495-26.692-2.4357-0.35487-11.664-1.6464-33.041-1.6464h-0.15965c-21.383 0-25.971 1.2915-28.406 1.6464-14.035 2.042-26.852 11.781-29.961 25.697-1.4957 6.8532-1.6553 14.451-1.3775 21.421 0.3961 9.9948 0.47295 19.972 1.3952 29.926 0.63758 6.612 1.7498 13.171 3.3284 19.629 2.9559 11.926 14.922 21.851 26.645 25.9 12.551 4.2226 26.05 4.9238 38.983 2.0246 1.4227-0.3259 2.8298-0.70391 4.221-1.1345 3.1392-0.98313 6.8224-2.0827 9.53-4.0142 0.0371-0.0271 0.06762-0.062 0.08906-0.10242 0.02144-0.0402 0.03348-0.0848 0.03496-0.13029v-9.6456c-6.6e-4 -0.0426-0.01089-0.0844-0.03018-0.12254-0.01913-0.0381-0.04667-0.0714-0.08081-0.0976-0.03398-0.0263-0.07356-0.0446-0.11561-0.0537-0.04223-9e-3 -0.08593-9e-3 -0.12798 4.9e-4 -8.2863 1.9478-16.778 2.9242-25.297 2.9088-14.661 0-18.605-6.8475-19.734-9.6981-0.9076-2.4637-1.484-5.0338-1.7144-7.6446-0.0023-0.0437 0.0059-0.08758 0.02392-0.12765 0.01798-0.04024 0.04552-0.07554 0.07999-0.10341 0.03464-0.02771 0.07537-0.047 0.11891-0.0564 0.04354-0.0094 0.08873-0.0086 0.13194 0.0025 8.1483 1.9346 16.501 2.911 24.883 2.9088 2.0159 0 4.0259 0 6.042-0.05228 8.4303-0.23271 17.316-0.6574 25.61-2.2516 0.20698-0.04058 0.4138-0.07554 0.59127-0.12798 13.083-2.4724 25.533-10.233 26.798-29.885 0.0473-0.77368 0.1656-8.1041 0.1656-8.9069 6e-3 -2.7284 0.89275-19.355-0.13013-29.571zm-20.136 49.037h-13.757v-33.161c0-6.9812-2.956-10.542-8.9684-10.542-6.6095 0-9.9201 4.2119-9.9201 12.531v18.151h-13.674v-18.151c0-8.3194-3.3165-12.531-9.926-12.531-5.977 0-8.9625 3.5605-8.9684 10.542v33.161h-13.745v-34.167c0-6.9812 1.8111-12.527 5.433-16.639 3.7363-4.1014 8.6373-6.2074 14.721-6.2074 7.0409 0 12.362 2.6644 15.909 7.9876l3.4231 5.6549 3.4288-5.6549c3.5471-5.3232 8.8678-7.9876 15.897-7.9876 6.0774 0 10.978 2.106 14.726 6.2074 3.6221 4.1074 5.433 9.6536 5.433 16.639z" fill="inherit"/>
</svg>
