<?xml version="1.0" encoding="UTF-8" standalone="no"?>
<!-- Generator: Adobe Illustrator 19.1.0, SVG Export Plug-In . SVG Version: 6.00 Build 0)  -->

<svg
   version="1.1"
   id="Layer_1"
   x="0px"
   y="0px"
   viewBox="0 0 128 128"
   xml:space="preserve"
   width="128"
   height="128"
   xmlns="http://www.w3.org/2000/svg"
   xmlns:svg="http://www.w3.org/2000/svg"><defs
   id="defs2592" />


<path
   d="m 40.935385,41.649231 v 6.178462 h 0.172308 c 1.649231,-2.363077 3.643077,-4.184615 5.956923,-5.464615 2.313846,-1.304616 4.996923,-1.944616 8,-1.944616 2.88,0 5.513846,0.566154 7.901539,1.673846 2.387692,1.107693 4.184615,3.101539 5.44,5.907693 1.353846,-1.993846 3.2,-3.766154 5.513846,-5.292308 2.313846,-1.526154 5.070769,-2.289231 8.246154,-2.289231 2.412308,0 4.652308,0.295385 6.72,0.886154 2.067693,0.590769 3.815385,1.526154 5.292308,2.830769 1.476923,1.304616 2.609231,2.978462 3.446154,5.07077 0.812308,2.092307 1.230769,4.603077 1.230769,7.556923 V 87.310771 H 86.326155 v -25.87077 c 0,-1.526154 -0.04923,-2.978462 -0.172308,-4.332308 -0.123076,-1.353846 -0.443076,-2.535384 -0.96,-3.52 -0.541538,-1.009231 -1.304615,-1.796923 -2.338461,-2.387692 -1.033846,-0.590769 -2.436923,-0.886154 -4.184616,-0.886154 -1.772307,0 -3.2,0.344615 -4.283077,1.009231 -1.083076,0.689231 -1.944615,1.550769 -2.56,2.658461 -0.615384,1.083077 -1.033846,2.313846 -1.230769,3.716923 -0.196923,1.378462 -0.32,2.781539 -0.32,4.184616 V 87.310771 H 57.747693 V 61.71077 c 0,-1.353846 -0.02461,-2.683077 -0.09846,-4.012308 -0.04923,-1.32923 -0.32,-2.535384 -0.763077,-3.667692 -0.443077,-1.107692 -1.181539,-2.018461 -2.215385,-2.683077 -1.033846,-0.664615 -2.535385,-1.009231 -4.553846,-1.009231 -0.590769,0 -1.378462,0.123077 -2.338462,0.393846 -0.96,0.27077 -1.92,0.763077 -2.830769,1.501539 -0.910769,0.738462 -1.698462,1.796923 -2.338462,3.175385 -0.64,1.378461 -0.96,3.2 -0.96,5.44 V 87.335386 H 29.12 V 41.649231 Z"
   id="path2585"
   style="fill:#ffffff;stroke-width:0.246154" /><path
   d="M 117.50247,117.89348 V 10.106519 H 100.1059 V 0 H 128 v 128 h -27.8941 v -10.10652 z"
   id="path2587"
   style="fill:#ffffff;stroke-width:0.217225" />
<path
   d="M 10.49753,117.89348 V 10.106519 H 27.8941 V 0 H 0 v 128 h 27.8941 v -10.10652 z"
   id="path460"
   style="fill:#ffffff;stroke-width:0.217225" /></svg>
